<svg width="23" height="27" viewBox="0 0 23 27" fill="none" xmlns="http://www.w3.org/2000/svg">
<path d="M2.31348 7.52961V11.7484H0.500977V8.02961C0.500977 6.75246 1.53633 5.71711 2.81348 5.71711H18.9165L15.1792 1.99603L16.4682 0.707031L21.7391 5.97792C22.0898 6.3313 22.0893 6.90186 21.7386 7.25524L16.4682 12.5256L15.1925 11.2499L18.9128 7.52961H2.31348Z" fill="#091841"/>
<path d="M3.58914 19.7797H20.1884V15.561H22.0009V19.2797C22.0009 20.5569 20.9656 21.5922 19.6884 21.5922H3.59285L7.31022 25.3258L6.03374 26.6023L0.762923 21.3315C0.412077 20.9781 0.4125 20.4075 0.763346 20.0541L6.03374 14.7837L7.30945 16.0594L3.58914 19.7797Z" fill="#091841"/>
</svg>
