<svg width="10" height="10" viewBox="0 0 10 10" preserveAspectRatio="none" fill="none" xmlns="http://www.w3.org/2000/svg">
<path d="M6.43836 5.15982C6.34703 5.06849 6.34703 4.93151 6.43836 4.84018L9.86301 1.41553C9.95434 1.3242 10 1.18721 10 1.09589C10 1.00457 9.95434 0.86758 9.86301 0.776256L9.22375 0.136986C9.13242 0.0456621 8.99543 0 8.90411 0C8.76712 0 8.6758 0.0456621 8.58447 0.136986L5.15982 3.56164C5.06849 3.65297 4.93151 3.65297 4.84018 3.56164L1.41553 0.136986C1.3242 0.0456621 1.18721 0 1.09589 0C1.00457 0 0.86758 0.0456621 0.776256 0.136986L0.136986 0.776256C0.0456621 0.86758 0 1.00457 0 1.09589C0 1.18721 0.0456621 1.3242 0.136986 1.41553L3.56164 4.84018C3.65297 4.93151 3.65297 5.06849 3.56164 5.15982L0.136986 8.58447C0.0456621 8.6758 0 8.81279 0 8.90411C0 8.99543 0.0456621 9.13242 0.136986 9.22375L0.776256 9.86301C0.86758 9.95434 1.00457 10 1.09589 10C1.18721 10 1.3242 9.95434 1.41553 9.86301L4.84018 6.43836C4.93151 6.34703 5.06849 6.34703 5.15982 6.43836L8.58447 9.86301C8.6758 9.95434 8.81279 10 8.90411 10C8.99543 10 9.13242 9.95434 9.22375 9.86301L9.86301 9.22375C9.95434 9.13242 10 8.99543 10 8.90411C10 8.81279 9.95434 8.6758 9.86301 8.58447L6.43836 5.15982Z" fill="#ffffff"/>
</svg>
