<svg width="216" height="24" viewBox="0 0 216 24" fill="none" xmlns="http://www.w3.org/2000/svg">
<path d="M10.5873 2.24974C11.1646 0.363368 13.835 0.363367 14.4123 2.24974L15.0543 4.34804C15.3616 5.35213 16.393 5.94762 17.4162 5.71166L19.5544 5.21858C21.4767 4.77529 22.8119 7.08798 21.4669 8.53106L19.9708 10.1363C19.2548 10.9044 19.2548 12.0954 19.9708 12.8635L21.4669 14.4687C22.8119 15.9118 21.4767 18.2245 19.5544 17.7812L17.4162 17.2881C16.393 17.0522 15.3616 17.6477 15.0543 18.6518L14.4123 20.7501C13.835 22.6364 11.1646 22.6364 10.5873 20.7501L9.94527 18.6518C9.63802 17.6477 8.60658 17.0522 7.58339 17.2881L5.44518 17.7812C3.52291 18.2245 2.18768 15.9118 3.53271 14.4687L5.02884 12.8635C5.74478 12.0954 5.74478 10.9044 5.02884 10.1363L3.53271 8.53106C2.18768 7.08798 3.52291 4.77529 5.44518 5.21858L7.58339 5.71166C8.60658 5.94762 9.63802 5.35213 9.94527 4.34804L10.5873 2.24974Z" fill="#334DE0"/>
<path d="M28 1H41.6L43.725 3.53846L45 5.23077V23H28V1Z" fill="#E42A78"/>
<path d="M71 15.6665V7.6665H49V15.6665H71Z" fill="#51DDAB"/>
<path d="M56 22.6665H64V0.666504H56V22.6665Z" fill="#51DDAB"/>
<path d="M79.0909 11.8179H76V21.0906H79.0909V11.8179Z" fill="#6E3ED3"/>
<path d="M83.7276 5.63623H80.6367V21.0907H83.7276V5.63623Z" fill="#6E3ED3"/>
<path d="M88.3643 7.18164H85.2734V21.0907H88.3643V7.18164Z" fill="#6E3ED3"/>
<path d="M92.9991 1H89.9082V21.0909H92.9991V1Z" fill="#6E3ED3"/>
<path d="M101.322 12.3296V12.0322C102.973 11.8579 103.845 11.0171 103.845 9.54053V7.22314C103.845 5.70557 104.368 5.11084 105.721 5.11084H106.152V3.20361H105.465C102.655 3.20361 101.415 4.35205 101.415 6.91553V8.79199C101.415 10.3506 100.789 10.9146 99.0664 10.9248V13.4473C100.789 13.4575 101.415 14.0112 101.415 15.5698V17.4258C101.415 20.0098 102.655 21.1685 105.465 21.1685H106.152V19.2612H105.721C104.368 19.2612 103.845 18.6665 103.845 17.1489V14.8315C103.845 13.3447 102.973 12.5039 101.322 12.3296ZM115.678 12.0425V12.3398C114.017 12.5142 113.145 13.355 113.145 14.8315V17.1489C113.145 18.6665 112.632 19.251 111.279 19.251H110.838V21.1685H111.525C114.345 21.1685 115.575 20.02 115.575 17.4463V15.5801C115.575 14.0112 116.211 13.4575 117.923 13.4473V10.9248C116.201 10.9146 115.575 10.3608 115.575 8.80225V6.94629C115.575 4.3623 114.345 3.20361 111.525 3.20361H110.838V5.11084H111.279C112.622 5.11084 113.145 5.70557 113.145 7.22314V9.54053C113.145 11.0273 114.017 11.8682 115.678 12.0425Z" fill="#00A1E0"/>
<path d="M121 6C121 4.34315 122.343 3 124 3H129.347C131.613 3 133.061 5.41643 131.992 7.41487L125.873 18.8556C125.422 19.6979 124.545 20.2238 123.59 20.2238C122.159 20.2238 121 19.0645 121 17.6343V6Z" fill="#767EAD"/>
<path d="M142.879 17.2239C142.879 18.8807 141.536 20.2239 139.879 20.2239H131.787C129.492 20.2239 128.047 17.7518 129.173 15.7519L135.493 4.52805C136.025 3.58407 137.024 3 138.107 3H139.879C141.536 3 142.879 4.34314 142.879 6V17.2239Z" fill="#51DDAB"/>
<path d="M157.333 8.44434H168V11.111H157.333V8.44434Z" fill="#2D4A92"/>
<path d="M157.333 17.3333H168V20H157.333V17.3333Z" fill="#2D4A92"/>
<path d="M144 4H154.667V6.66667H144V4Z" fill="#2D4A92"/>
<path d="M144 12.8889H154.667V15.5556H144V12.8889Z" fill="#2D4A92"/>
<path d="M157.333 4H168V6.66667H157.333V4Z" fill="#2D4A92" fill-opacity="0.51"/>
<path d="M157.333 12.8889H168V15.5556H157.333V12.8889Z" fill="#2D4A92" fill-opacity="0.51"/>
<path d="M144 8.44434H154.667V11.111H144V8.44434Z" fill="#2D4A92" fill-opacity="0.51"/>
<path d="M144 17.3333H154.667V20H144V17.3333Z" fill="#2D4A92" fill-opacity="0.51"/>
<g clip-path="url(#clip0)">
<path d="M169.667 17.3844H184.333C184.701 17.3844 185 16.922 185 16.3523C185 15.7827 184.701 15.3203 184.333 15.3203H169.667C169.299 15.3203 169 15.7827 169 16.3523C169 16.922 169.299 17.3844 169.667 17.3844Z" fill="white"/>
<path d="M169.917 6.89204H190.083C190.589 6.89204 191 6.46823 191 5.94602C191 5.42382 190.589 5 190.083 5H169.917C169.411 5 169 5.42382 169 5.94602C169 6.46823 169.411 6.89204 169.917 6.89204Z" fill="white"/>
<path d="M169.75 12.2242H186.25C186.664 12.2242 187 11.7618 187 11.1922C187 10.6225 186.664 10.1602 186.25 10.1602H169.75C169.336 10.1602 169 10.6225 169 11.1922C169 11.7618 169.336 12.2242 169.75 12.2242Z" fill="white"/>
</g>
<path d="M205.438 12.1598C205.347 12.0685 205.347 11.9315 205.438 11.8402L208.863 8.41553C208.954 8.3242 209 8.18721 209 8.09589C209 8.00457 208.954 7.86758 208.863 7.77626L208.224 7.13699C208.132 7.04566 207.995 7 207.904 7C207.767 7 207.676 7.04566 207.584 7.13699L204.16 10.5616C204.068 10.653 203.932 10.653 203.84 10.5616L200.416 7.13699C200.324 7.04566 200.187 7 200.096 7C200.005 7 199.868 7.04566 199.776 7.13699L199.137 7.77626C199.046 7.86758 199 8.00457 199 8.09589C199 8.18721 199.046 8.3242 199.137 8.41553L202.562 11.8402C202.653 11.9315 202.653 12.0685 202.562 12.1598L199.137 15.5845C199.046 15.6758 199 15.8128 199 15.9041C199 15.9954 199.046 16.1324 199.137 16.2238L199.776 16.863C199.868 16.9543 200.005 17 200.096 17C200.187 17 200.324 16.9543 200.416 16.863L203.84 13.4384C203.932 13.347 204.068 13.347 204.16 13.4384L207.584 16.863C207.676 16.9543 207.813 17 207.904 17C207.995 17 208.132 16.9543 208.224 16.863L208.863 16.2238C208.954 16.1324 209 15.9954 209 15.9041C209 15.8128 208.954 15.6758 208.863 15.5845L205.438 12.1598Z" fill="#113D6B"/>
<defs>
<clipPath id="clip0">
<rect x="169" y="5" width="22" height="13" fill="white"/>
</clipPath>
</defs>
</svg>
