<svg width="15" height="15" viewBox="0 0 15 15" fill="none" xmlns="http://www.w3.org/2000/svg">
<path fill-rule="evenodd" clip-rule="evenodd" d="M7.5 15C11.6422 15 15 11.6422 15 7.5C15 3.35785 11.6422 0 7.5 0C3.35785 0 0 3.35785 0 7.5C0 11.6422 3.35785 15 7.5 15ZM6.1214 11C6.24316 11 6.36035 10.9517 6.44629 10.8651L11.798 5.50403C12.0673 5.23474 12.0673 4.79749 11.798 4.52777L11.4732 4.20227C11.2043 3.93259 10.7678 3.93259 10.4985 4.20227L6.1214 8.5867L4.50153 6.96408C4.2323 6.69437 3.79614 6.69437 3.52679 6.96408L3.20197 7.28958C2.93268 7.55878 2.93268 7.99612 3.20197 8.26584L5.79651 10.8651C5.85541 10.9244 5.92896 10.9658 6.00861 10.986C6.04523 10.9952 6.08307 11 6.1214 11Z" fill="white"/>
</svg>
