<svg width="48" height="16" viewBox="0 0 48 16" fill="none" xmlns="http://www.w3.org/2000/svg">
<path d="M16 3.539C15.405 3.8 14.771 3.973 14.11 4.057C14.79 3.651 15.309 3.013 15.553 2.244C14.919 2.622 14.219 2.889 13.473 3.038C12.871 2.397 12.013 2 11.077 2C9.261 2 7.799 3.474 7.799 5.281C7.799 5.541 7.821 5.791 7.875 6.029C5.148 5.896 2.735 4.589 1.114 2.598C0.831 3.089 0.665 3.651 0.665 4.256C0.665 5.392 1.25 6.399 2.122 6.982C1.595 6.972 1.078 6.819 0.64 6.578C0.64 6.588 0.64 6.601 0.64 6.614C0.64 8.208 1.777 9.532 3.268 9.837C3.001 9.91 2.71 9.945 2.408 9.945C2.198 9.945 1.986 9.933 1.787 9.889C2.212 11.188 3.418 12.143 4.852 12.174C3.736 13.047 2.319 13.573 0.785 13.573C0.516 13.573 0.258 13.561 0 13.528C1.453 14.465 3.175 15 5.032 15C11.068 15 14.368 10 14.368 5.666C14.368 5.521 14.363 5.381 14.356 5.242C15.007 4.78 15.554 4.203 16 3.539Z" fill="white"/>
<path d="M16.8824 2.82756e-08H31.1168C31.6044 -0.000122042 31.9998 0.39502 32 0.882446V15.1168C31.9999 15.6045 31.6045 16.0001 31.1168 16H27.0469V9.8125H29.1328L29.4453 7.39062H27.0469V5.84814C27.0469 5.14856 27.2411 4.67188 28.2443 4.67188H29.5156V2.5116C29.2944 2.48218 28.5355 2.41638 27.6525 2.41638C25.8087 2.41638 24.5469 3.54138 24.5469 5.60828V7.39062H22.4688V9.8125H24.5469V16H16.8832C16.3956 16.0001 16.0002 15.605 16 15.1176V0.883179C15.9999 0.39563 16.395 0.000244169 16.8824 2.82756e-08Z" fill="white"/>
<path d="M46 2H34V14H46V2Z" fill="#ECEFF1"/>
<path d="M40 9.262L46 14V4.646L40 9.262Z" fill="#CFD8DC"/>
<path d="M46.5 2H46L40 6.738L34 2H33.5C32.672 2 32 2.672 32 3.5V12.5C32 13.328 32.672 14 33.5 14H34V4.646L40 9.261L46 4.645V14H46.5C47.328 14 48 13.328 48 12.5V3.5C48 2.672 47.328 2 46.5 2Z" fill="#F44336"/>
</svg>
