<svg width="240" height="24" viewBox="0 0 240 24" fill="none" xmlns="http://www.w3.org/2000/svg">
    <path d="M23.6816 13.9418C23.6816 14.4096 23.3025 14.7888 22.8347 14.7888C22.3669 14.7888 21.9878 14.4096 21.9878 13.9418V8.43673C21.9878 7.50273 21.2279 6.74286 20.2939 6.74286H19.0082C17.9201 6.74286 16.9535 6.05078 16.6029 5.02073L16.3466 4.26793C16.2297 3.92458 15.9075 3.69388 15.5448 3.69388H10.1341C9.77845 3.69388 9.45835 3.91866 9.33754 4.25315L9.04437 5.06503C8.68201 6.06857 7.72162 6.74286 6.65465 6.74286H5.38776C4.45375 6.74286 3.69388 7.50273 3.69388 8.43673V18.1765C3.69388 19.1105 4.45375 19.8704 5.38776 19.8704H20.2939C21.2279 19.8704 21.9878 19.1105 21.9878 18.1765C21.9878 17.7088 22.3669 17.3296 22.8347 17.3296C23.3025 17.3296 23.6816 17.7088 23.6816 18.1765C23.6816 20.0445 22.1619 21.5643 20.2939 21.5643H5.38776C3.51975 21.5643 2 20.0445 2 18.1765V8.43673C2 6.56873 3.51975 5.04898 5.38776 5.04898H6.65465C7.01032 5.04898 7.33042 4.8242 7.45124 4.4897L7.7444 3.67783C8.10677 2.67429 9.06715 2 10.1341 2H15.5448C16.6329 2 17.5995 2.69208 17.9501 3.72212L18.2064 4.47492C18.3233 4.81832 18.6455 5.04898 19.0082 5.04898H20.2939C22.1619 5.04898 23.6816 6.56873 23.6816 8.43673V13.9418Z" fill="#113D6B"/>
    <path fill-rule="evenodd" clip-rule="evenodd" d="M7.58984 12.8832C7.58984 9.96445 9.96445 7.58984 12.8832 7.58984C15.802 7.58984 18.1766 9.96445 18.1766 12.8832C18.1766 15.802 15.802 18.1766 12.8832 18.1766C9.96445 18.1766 7.58984 15.802 7.58984 12.8832ZM9.28372 12.8832C9.28372 14.868 10.8985 16.4827 12.8832 16.4827C14.868 16.4827 16.4827 14.868 16.4827 12.8832C16.4827 10.8985 14.868 9.28372 12.8832 9.28372C10.8985 9.28372 9.28372 10.8985 9.28372 12.8832Z" fill="#113D6B"/>
    <path fill-rule="evenodd" clip-rule="evenodd" d="M41.2806 11.8408C41.2806 14.2926 39.2859 16.2872 36.8342 16.2872C34.3824 16.2872 32.3878 14.2926 32.3878 11.8408V5.44643C32.3878 2.99467 34.3824 1 36.8342 1C39.2859 1 41.2806 2.99467 41.2806 5.44643V7.60612C41.2806 8.07389 40.9014 8.45306 40.4337 8.45306C39.9659 8.45306 39.5867 8.07389 39.5867 7.60612V5.44643C39.5867 3.92867 38.3519 2.69388 36.8342 2.69388C35.3164 2.69388 34.0816 3.92867 34.0816 5.44643V11.8408C34.0816 13.3586 35.3164 14.5934 36.8342 14.5934C38.3519 14.5934 39.5867 13.3586 39.5867 11.8408C39.5867 11.3731 39.9659 10.9939 40.4337 10.9939C40.9014 10.9939 41.2806 11.3731 41.2806 11.8408ZM43.8214 10.9939C44.2892 10.9939 44.6684 11.3731 44.6684 11.8408C44.6684 15.8745 41.6041 19.2059 37.6811 19.6295V20.9878H40.2643C40.732 20.9878 41.1112 21.3669 41.1112 21.8347C41.1112 22.3025 40.732 22.6817 40.2643 22.6817H33.4888C33.021 22.6817 32.6418 22.3025 32.6418 21.8347C32.6418 21.3669 33.021 20.9878 33.4888 20.9878H35.9872V19.6295C32.0643 19.2059 29 15.8745 29 11.8408C29 11.3731 29.3792 10.9939 29.8469 10.9939C30.3147 10.9939 30.6939 11.3731 30.6939 11.8408C30.6939 15.2266 33.4484 17.9811 36.8342 17.9811C40.2199 17.9811 42.9745 15.2266 42.9745 11.8408C42.9745 11.3731 43.3537 10.9939 43.8214 10.9939Z" fill="#113D6B"/>
    <path d="M69.7108 2.28932C68.8794 1.45788 67.774 1 66.5982 1C65.4225 1 64.3171 1.45787 63.4857 2.28928L51.1839 14.5911C51.0792 14.6957 51.0034 14.8257 50.9637 14.9683L49.0315 21.9102C48.9482 22.2096 49.0329 22.5307 49.2533 22.7499C49.4166 22.9123 49.6354 23 49.8595 23C49.9377 23 50.0167 22.9893 50.0942 22.9673L57.0361 20.9954C57.329 20.9122 57.556 20.6802 57.6328 20.3856C57.7097 20.0909 57.6249 19.7776 57.4099 19.562L53.0334 15.1723L63.2306 4.97508L67.0229 8.76742L59.2166 16.5525C58.8805 16.8876 58.8798 17.4317 59.215 17.7678C59.5501 18.1039 60.0943 18.1046 60.4303 17.7695L69.7107 8.51433C70.5421 7.68293 71 6.57756 71 5.4018C71 4.22605 70.5421 3.12068 69.7108 2.28932ZM55.1615 19.7412L51.098 20.8954L52.2361 16.8068L55.1615 19.7412ZM68.4962 7.29814L68.2399 7.55377L64.4459 3.75975L64.7011 3.50461C65.2078 2.99783 65.8816 2.71875 66.5982 2.71875C67.3149 2.71875 67.9886 2.99783 68.4954 3.50465C69.0022 4.01138 69.2813 4.68513 69.2813 5.4018C69.2813 6.11848 69.0022 6.79223 68.4962 7.29814Z" fill="#113D6B"/>
    <path d="M80.4601 9.39701L85.3848 5.45749V18.6987L80.4602 14.7585L80.1863 14.5393H79.8354H77.1539C77.0697 14.5393 77 14.4694 77 14.3854V9.76999C77 9.68649 77.0704 9.61612 77.1539 9.61612H79.8354H80.1862L80.4601 9.39701Z" stroke="white" stroke-width="2"/>
    <path d="M90.305 7.99769C90.0777 7.77384 89.7131 7.7773 89.4892 8.00231C89.2654 8.22962 89.2677 8.59424 89.4938 8.81924C90.3661 9.68002 90.8461 10.8373 90.8461 12.0777C90.8461 13.3181 90.3661 14.4755 89.4938 15.3363C89.2677 15.5589 89.2654 15.9247 89.4892 16.152C89.6023 16.2663 89.7511 16.3228 89.8988 16.3228C90.0454 16.3228 90.1919 16.2674 90.305 16.1555C91.3988 15.0789 92 13.6297 92 12.0777C92 10.5258 91.3988 9.07655 90.305 7.99769Z" fill="white" stroke="white"/>
    <path d="M110.689 22H103.155C101.415 22 100 20.5982 100 18.875V8.28906C100 6.56589 101.415 5.16406 103.155 5.16406H110.689C112.429 5.16406 113.845 6.56589 113.845 8.28906V18.875C113.845 20.5982 112.429 22 110.689 22ZM103.155 6.72656C102.286 6.72656 101.578 7.42755 101.578 8.28906V18.875C101.578 19.7365 102.286 20.4375 103.155 20.4375H110.689C111.559 20.4375 112.267 19.7365 112.267 18.875V8.28906C112.267 7.42755 111.559 6.72656 110.689 6.72656H103.155ZM117 16.9219V5.125C117 3.40182 115.585 2 113.845 2H105.088C104.652 2 104.299 2.34973 104.299 2.78125C104.299 3.21277 104.652 3.5625 105.088 3.5625H113.845C114.714 3.5625 115.422 4.26349 115.422 5.125V16.9219C115.422 17.3534 115.775 17.7031 116.211 17.7031C116.647 17.7031 117 17.3534 117 16.9219Z" fill="#1E40C8" stroke="#1E40C8" stroke-width="0.4"/>
    <path d="M138 9C139.657 9 141 7.65685 141 6C141 4.34315 139.657 3 138 3C136.343 3 135 4.34315 135 6C135 6.23261 135.026 6.45903 135.077 6.67643L128.539 9.4006C128.007 8.559 127.069 8 126 8C124.343 8 123 9.34315 123 11C123 12.6569 124.343 14 126 14C126.995 14 127.877 13.5158 128.422 12.7702L135.13 16.124C135.045 16.4011 135 16.6952 135 17C135 18.6569 136.343 20 138 20C139.657 20 141 18.6569 141 17C141 15.3431 139.657 14 138 14C137.005 14 136.123 14.4842 135.578 15.2298L128.87 11.876C128.955 11.5989 129 11.3048 129 11C129 10.7674 128.974 10.541 128.923 10.3236L135.461 7.5994C135.993 8.441 136.931 9 138 9Z" fill="#1E40C8"/>
    <path d="M160 9.70111C160 9.87281 159.943 10.0731 159.8 10.2162L155.994 14.0223C155.851 14.1653 155.707 14.2226 155.507 14.2226C155.307 14.2226 155.164 14.1653 155.021 14.0223L151.215 10.2162C150.928 9.93005 150.928 9.50079 151.215 9.21463C151.501 8.92846 151.901 8.92846 152.188 9.21463L154.8 11.8271C155.191 12.2176 155.824 12.2176 156.214 11.8271L158.827 9.21463C159.113 8.92846 159.514 8.92846 159.8 9.21463C159.943 9.35771 160 9.52941 160 9.70111Z" fill="#1E40C8"/>
    <path d="M175.344 6H184.566C185.331 6 185.999 6.63195 185.999 7.39733V16.6182C185.999 17.3836 185.331 18 184.566 18H175.344C174.579 18 174 17.3836 174 16.6182V7.39733C174 6.63195 174.579 6 175.344 6Z" fill="white"/>
    <path fill-rule="evenodd" clip-rule="evenodd" d="M202.215 17.5316C202.887 17.5316 203.431 16.9879 203.431 16.3162V8.2154C203.431 7.54463 202.887 7 202.215 7C201.544 7 201 7.54463 201 8.2154V16.3162C201 16.9879 201.544 17.5316 202.215 17.5316ZM207.275 17.5316C207.946 17.5316 208.491 16.9879 208.491 16.3162V8.2154C208.491 7.54463 207.946 7 207.275 7C206.605 7 206.06 7.54463 206.06 8.2154V16.3162C206.06 16.9879 206.605 17.5316 207.275 17.5316Z" fill="white"/>
</svg>
